<?xml version="1.0" encoding="utf-8"?>
<!DOCTYPE svg PUBLIC "-//W3C//DTD SVG 1.1//EN" "http://www.w3.org/Graphics/SVG/1.1/DTD/svg11.dtd">
<svg version="1.1" baseProfile="full"
 xmlns="http://www.w3.org/2000/svg"
 xmlns:xlink="http://www.w3.org/1999/xlink"
 xmlns:ev="http://www.w3.org/2001/xml-events" 
  height="84px" 
  width="111px" 
>
<path fill="rgb( 255, 255, 255 )"
 d="M74.3309999999999,38.1559999999999 C70.5730000000001,37.147 66.4469999999999,37.601 62.963,39.245 C59.7719999999999,40.749 56.895,43.585 55.1559999999999,46.775 C48.865,44.772 42.3130000000001,45.253 37.211,50.003 C35.4839999999999,51.611 31.7329999999999,55.318 32.7270000000001,58.047 C35.6099999999999,65.96 38.492,73.873 41.375,81.7859999999999 C41.925,83.297 44.3230000000001,83.441 44.9659999999999,81.901 C48.2570000000001,74.033 56.5250000000001,72.027 64.047,74.967 C64.1659999999999,75.013 64.318,75.0309999999999 64.4400000000001,75.051 C64.4580000000001,75.054 64.491,75.049 64.51,75.051 C64.596,75.063 64.691,75.068 64.777,75.067 C64.826,75.068 64.8800000000001,75.062 64.9280000000001,75.059 C64.979,75.056 65.0319999999999,75.05 65.0820000000001,75.042 C65.1579999999999,75.032 65.2349999999999,75.015 65.309,74.997 C65.3240000000001,74.9930000000001 65.3389999999999,74.989 65.3520000000001,74.984 C65.7170000000001,74.883 66.0530000000001,74.689 66.309,74.414 C66.328,74.395 66.3499999999999,74.377 66.3679999999999,74.357 C66.3699999999999,74.354 66.3720000000001,74.352 66.374,74.35 C66.5830000000001,74.119 66.7329999999999,73.848 66.8009999999999,73.556 C70.2159999999999,66.08 78.241,64.231 85.6099999999999,67.111 C85.616,67.114 85.623,67.114 85.6279999999999,67.117 C85.752,67.1660000000001 85.8789999999999,67.202 86.01,67.224 C86.1099999999999,67.241 86.204,67.2430000000001 86.299,67.246 C86.3130000000001,67.245 86.327,67.249 86.3420000000001,67.248 C86.4580000000001,67.248 86.5699999999999,67.235 86.6800000000001,67.2140000000001 C86.683,67.212 86.6869999999999,67.212 86.6900000000001,67.211 C86.7650000000001,67.197 86.8389999999999,67.175 86.9100000000001,67.151 C87.6700000000001,66.922 88.4000000000001,66.236 88.377,65.3579999999999 C88.4159999999999,64.972 88.328,64.588 88.1969999999999,64.228 C85.394,56.534 82.5920000000001,48.842 79.79,41.149 C78.9880000000001,38.949 76.385,38.707 74.3309999999999,38.1559999999999 ZM61.5619999999999,70.417 C57.2719999999999,69.077 52.1410000000001,69.623 47.7560000000001,72.676 C46.2729999999999,73.708 45.0039999999999,75.054 44.0239999999999,76.537 C41.9829999999999,70.933 39.941,65.327 37.8989999999999,59.723 C37.5640000000001,58.803 37.2280000000001,57.881 36.893,56.96 C36.759,56.5940000000001 37.1700000000001,56.051 37.481,55.576 C41.49,49.454 48.154,48.22 54.373,50.684 C56.769,57.2619999999999 59.1659999999999,63.8390000000001 61.5619999999999,70.417 ZM76.6590000000001,45.078 C78.7860000000001,50.917 80.914,56.756 83.0409999999999,62.597 C78.751,61.254 73.6189999999999,61.799 69.23,64.853 C67.748,65.885 66.4829999999999,67.229 65.5029999999999,68.713 C63.125,62.1849999999999 60.7470000000001,55.657 58.3689999999999,49.13 C59.6110000000001,46.28 62.1700000000001,43.794 65.0630000000001,42.43 C66.566,41.72 68.134,41.513 69.7760000000001,41.427 C70.6849999999999,41.415 71.4059999999999,41.556 72.3009999999999,41.72 C72.8699999999999,41.801 76.0039999999999,43.279 75.559,42.059 C75.9259999999999,43.0650000000001 76.2929999999999,44.071 76.6590000000001,45.078 Z "/>
<path fill="rgb( 255, 255, 255 )"
 d="M5.923,37.321 C6.26700000000005,37.498 6.58300000000008,37.693 6.89100000000008,37.879 C7.452,38.22 7.98900000000003,38.532 8.63100000000009,38.6559999999999 C10.5699999999999,39.652 12.595,40.335 14.386,41.104 C17.309,42.7190000000001 20.6220000000001,43.499 23.52,45.421 C23.9490000000001,45.577 24.3869999999999,45.752 24.8230000000001,45.922 C25.0699999999999,45.345 25.3119999999999,44.765 25.576,44.198 C24.2809999999999,43.581 22.99,42.951 21.8130000000001,42.212 C21.354,42.4450000000001 21.0650000000001,42.053 20.684,41.913 C18.432,41.377 16.771,39.621 14.367,39.346 C13.338,38.1079999999999 11.604,38.24 10.232,37.503 C9.81799999999998,37.28 9.4369999999999,36.979 9.11799999999994,36.5359999999999 C5.92699999999991,36.288 3.875,31.659 0.27700000000004,33.706 C0.47299999999996,36.477 3.99800000000005,36.444 5.923,37.321 Z "/>
<path fill="rgb( 255, 255, 255 )"
 d="M32.9390000000001,27.409 C32.432,26.75 31.9369999999999,26.073 31.461,25.37 C31.461,25.37 31.518,24.727 31.518,24.727 C29.701,22.942 28.0730000000001,21.033 26.5909999999999,18.829 C26.114,18.398 25.4549999999999,18.419 24.9480000000001,18.883 C24.3510000000001,19 24.337,19.816 24.4860000000001,20.2569999999999 C26.723,21.985 28.038,24.352 29.5799999999999,26.683 C29.9680000000001,27.268 30.3679999999999,27.852 30.8019999999999,28.422 C31.7539999999999,28.546 32.2260000000001,29.385 32.558,30.112 C33.04,30.668 33.4960000000001,31.259 33.9659999999999,31.83 C34.4659999999999,31.398 34.979,30.981 35.491,30.561 C34.6300000000001,29.527 33.769,28.491 32.9390000000001,27.409 Z "/>
<path fill="rgb( 255, 255, 255 )"
 d="M51.873,4.12099999999998 C52.0219999999999,5.70299999999997 53.1179999999999,7.24000000000001 52.653,8.75800000000004 C53.308,9.96500000000003 53.1400000000001,11.229 53.4349999999999,12.5890000000001 C53.4349999999999,12.5890000000001 53.232,12.9 53.232,12.9 C53.502,13.189 53.306,13.6900000000001 53.3199999999999,14.072 C54.0129999999999,17.62 54.825,21.109 55.1900000000001,24.6079999999999 C55.827,24.4880000000001 56.4639999999999,24.37 57.106,24.271 C56.9960000000001,23.648 56.8209999999999,23.023 56.787,22.33 C57.0699999999999,21.6950000000001 56.3520000000001,20.886 56.682,20.279 C56.682,20.279 55.567,15.252 55.567,15.252 C55.8140000000001,14.47 55.664,13.6950000000001 55.4949999999999,12.847 C56.0889999999999,12.338 55.3779999999999,11.7190000000001 55.1479999999999,11.268 C55.644,8.899 54.251,6.80999999999995 54.559,4.32500000000005 C55.088,3.71500000000003 54.7349999999999,3.25099999999998 54.971,2.58699999999999 C54.702,1.49199999999996 53.9079999999999,0.69899999999996 52.7539999999999,0.55600000000004 C52.2,0.90300000000002 51.6780000000001,1.70399999999995 51.623,2.29200000000003 C51.7380000000001,2.92100000000005 51.8230000000001,3.59400000000005 51.873,4.12099999999998 Z "/>
<path fill="rgb( 255, 255, 255 )"
 d="M85.1880000000001,14.4059999999999 C84.8630000000001,13.873 84.347,13.799 83.771,13.7 C82.683,15.002 82.3869999999999,17.026 81.076,18.038 C81.076,18.038 78.9190000000001,22.727 78.9190000000001,22.727 C78.9190000000001,22.727 78.4010000000001,22.987 78.4010000000001,22.987 C77.356,24.7569999999999 76.3130000000001,26.5359999999999 75.2660000000001,28.313 C75.683,28.528 76.0920000000001,28.751 76.502,28.975 C77.287,27.6369999999999 78.057,26.266 78.8,24.822 C81.3099999999999,21.751 83.2159999999999,17.831 85.1880000000001,14.4059999999999 Z "/>
<path fill="rgb( 255, 255, 255 )"
 d="M106.469,25.429 C105.139,26.793 103.705,27.633 102.077,28.65 C100.715,29.716 99.8710000000001,30.633 98.509,31.698 C96.6980000000001,33.1369999999999 94.8920000000001,34.39 93.0419999999999,35.903 C92.335,36.418 91.606,36.862 90.8969999999999,37.317 C91.377,37.852 91.856,38.389 92.319,38.941 C93.855,37.715 95.7090000000001,36.953 97.1030000000001,35.426 C98.8820000000001,34.489 100.066,32.857 102.032,32.114 C102.032,32.114 102.29,31.7329999999999 102.463,31.684 C102.8,31.1559999999999 103.537,30.7 104.149,30.65 C105.255,29.164 106.963,28.001 108.547,27.2430000000001 C109.194,26.504 110.815,25.859 110.1,24.582 C109.874,23.66 108.848,24.199 108.223,24.0069999999999 C108.103,25.027 106.531,24.425 106.469,25.429 Z "/>
</svg>
