<?xml version="1.0" encoding="utf-8"?>
<!DOCTYPE svg PUBLIC "-//W3C//DTD SVG 1.1//EN" "http://www.w3.org/Graphics/SVG/1.1/DTD/svg11.dtd">
<svg version="1.1" baseProfile="full"
 xmlns="http://www.w3.org/2000/svg"
 xmlns:xlink="http://www.w3.org/1999/xlink"
 xmlns:ev="http://www.w3.org/2001/xml-events" 
  height="82px" 
  width="107px" 
>
<path fill="rgb( 255, 255, 255 )"
 d="M88.245,44.367 C88.245,44.367 74.436,48.434 74.436,48.434 C73.679,47.711 73.114,46.828 72.8150000000001,45.813 C72.645,45.236 72.571,44.65 72.582,44.064 C72.582,44.064 49.103,50.979 49.103,50.979 C49.43,51.465 49.686,51.998 49.856,52.574 C50.155,53.59 50.158,54.6369999999999 49.914,55.6559999999999 C49.914,55.6559999999999 36.105,59.723 36.105,59.723 C35.348,59 34.783,58.117 34.4829999999999,57.101 C33.348,53.245 33.9059999999999,49.684 38.849,48.228 C38.849,48.228 80.827,35.865 80.827,35.865 C80.827,35.865 80.793,35.931 80.793,35.931 C85.353,35.037 87.134,37.712 88.187,41.285 C88.486,42.301 88.489,43.348 88.245,44.367 ZM48.561,71.8440000000001 C52.711,66.981 54.398,60.147 52.442,53.508 C52.323,53.101 52.187,52.704 52.044,52.312 C52.044,52.312 69.723,47.105 69.723,47.105 C69.816,47.513 69.917,47.92 70.037,48.326 C71.992,54.965 77.112,59.794 83.236,61.6319999999999 C83.236,61.6319999999999 83.235,61.6319999999999 83.235,61.6319999999999 C83.235,61.6319999999999 84.678,66.5309999999999 84.678,66.5309999999999 C84.678,66.5309999999999 86.813,65.902 86.813,65.902 C86.813,65.902 88.0839999999999,70.217 88.0839999999999,70.217 C88.0839999999999,70.217 49.139,81.687 49.139,81.687 C49.139,81.687 47.8680000000001,77.371 47.8680000000001,77.371 C47.8680000000001,77.371 50.004,76.742 50.004,76.742 C50.004,76.742 48.561,71.8440000000001 48.561,71.8440000000001 ZM56.994,66.897 C58.384,71.617 63.296,74.329 67.966,72.953 C71.163,72.0119999999999 73.418,69.398 74.075,66.327 C74.075,66.327 76.0170000000001,66.609 76.0170000000001,66.609 C76.0170000000001,66.609 76.348,64.1950000000001 76.348,64.1950000000001 C76.348,64.1950000000001 74.252,63.891 74.252,63.891 C74.21,63.236 74.097,62.574 73.904,61.917 C72.514,57.197 67.602,54.485 62.932,55.861 C58.2619999999999,57.236 55.604,62.177 56.994,66.897 ZM63.643,59.079 C66.6849999999999,58.183 69.886,59.949 70.792,63.025 C70.829,63.151 70.86,63.278 70.889,63.405 C70.889,63.405 67.697,62.941 67.697,62.941 C67.697,62.941 67.366,65.355 67.366,65.355 C67.366,65.355 70.91,65.8680000000001 70.91,65.8680000000001 C70.489,67.8819999999999 69.016,69.599 66.923,70.216 C63.88,71.112 60.679,69.345 59.774,66.27 C58.8680000000001,63.194 60.6,59.975 63.643,59.079 Z "/>
<path fill="rgb( 255, 255, 255 )"
 d="M6.73900000000003,46.84 C7.11300000000006,46.9400000000001 7.46299999999997,47.064 7.803,47.181 C8.423,47.395 9.01400000000001,47.587 9.66800000000001,47.572 C11.774,48.136 13.897,48.376 15.811,48.749 C19.009,49.71 22.412,49.772 25.65,51.038 C26.102,51.1 26.567,51.178 27.029,51.252 C27.149,50.636 27.263,50.019 27.401,49.408 C26.006,49.079 24.61,48.736 23.304,48.2619999999999 C22.904,48.587 22.539,48.265 22.138,48.2089999999999 C19.823,48.1609999999999 17.829,46.796 15.42,47.034 C14.153,46.043 12.486,46.538 10.989,46.107 C10.538,45.977 10.101,45.763 9.69500000000005,45.398 C6.524,45.829 3.54100000000005,41.739 0.45600000000002,44.5 C1.23299999999995,47.167 4.67200000000003,46.39 6.73900000000003,46.84 Z "/>
<path fill="rgb( 255, 255, 255 )"
 d="M31.049,31.442 C30.415,30.905 29.788,30.348 29.175,29.761 C29.175,29.761 29.0940000000001,29.121 29.0940000000001,29.121 C26.941,27.76 24.946,26.239 23.032,24.398 C22.474,24.077 21.835,24.2380000000001 21.437,24.798 C20.878,25.039 21.037,25.8390000000001 21.277,26.239 C23.828,27.455 25.614,29.49 27.6130000000001,31.442 C28.116,31.933 28.63,32.419 29.175,32.884 C30.1319999999999,32.804 30.77,33.524 31.249,34.165 C31.838,34.607 32.407,35.088 32.9880000000001,35.546 C33.385,35.018 33.799,34.502 34.21,33.984 C33.151,33.155 32.09,32.325 31.049,31.442 Z "/>
<path fill="rgb( 255, 255, 255 )"
 d="M44.634,4.67899999999997 C45.114,6.19399999999996 46.511,7.46400000000006 46.377,9.04600000000005 C47.272,10.087 47.375,11.3579999999999 47.95,12.625 C47.95,12.625 47.818,12.972 47.818,12.972 C48.143,13.197 48.057,13.729 48.151,14.099 C49.579,17.421 51.11,20.659 52.206,24.002 C52.803,23.75 53.401,23.5 54.0069999999999,23.2670000000001 C53.768,22.682 53.465,22.1079999999999 53.2859999999999,21.438 C53.429,20.7569999999999 52.556,20.1180000000001 52.75,19.455 C52.75,19.455 50.597,14.778 50.597,14.778 C50.673,13.961 50.3630000000001,13.235 50.019,12.442 C50.491,11.819 49.665,11.364 49.345,10.972 C49.329,8.55200000000002 47.527,6.80399999999997 47.303,4.31100000000004 C47.691,3.60199999999998 47.248,3.22400000000005 47.338,2.52499999999998 C46.8440000000001,1.51099999999997 45.9,0.904 44.742,1.00800000000004 C44.274,1.46400000000006 43.933,2.35799999999995 44.003,2.94399999999996 C44.248,3.53399999999999 44.475,4.17399999999998 44.634,4.67899999999997 Z "/>
<path fill="rgb( 255, 255, 255 )"
 d="M79.37,7.69100000000003 C78.9400000000001,7.23800000000006 78.42,7.27499999999998 77.837,7.29999999999995 C77.048,8.80200000000002 77.187,10.843 76.119,12.109 C76.119,12.109 75.001,17.149 75.001,17.149 C75.001,17.149 74.55,17.5119999999999 74.55,17.5119999999999 C73.903,19.463 73.26,21.422 72.612,23.38 C73.0650000000001,23.503 73.5119999999999,23.634 73.96,23.766 C74.444,22.292 74.907,20.789 75.328,19.222 C77.133,15.689 78.1660000000001,11.454 79.37,7.69100000000003 Z "/>
<path fill="rgb( 255, 255, 255 )"
 d="M102.501,13.967 C101.488,15.582 100.265,16.705 98.888,18.043 C97.782,19.373 97.151,20.448 96.045,21.777 C94.579,23.566 93.079,25.172 91.59,27.0410000000001 C91.008,27.6950000000001 90.389,28.283 89.792,28.877 C90.375,29.299 90.957,29.722 91.526,30.164 C92.768,28.641 94.419,27.504 95.458,25.717 C97,24.426 97.812,22.58 99.577,21.438 C99.577,21.438 99.748,21.011 99.907,20.927 C100.125,20.34 100.748,19.739 101.336,19.5599999999999 C102.103,17.874 103.527,16.377 104.915,15.301 C105.391,14.442 106.839,13.468 105.871,12.372 C105.454,11.518 104.566,12.2619999999999 103.914,12.206 C104.013,13.229 102.349,12.973 102.501,13.967 Z "/>
</svg>
